<?xml version="1.0" encoding="UTF-8" standalone="no"?>
<!-- Created with Inkscape (http://www.inkscape.org/) -->

<svg
   xmlns:dc="http://purl.org/dc/elements/1.1/"
   xmlns:cc="http://creativecommons.org/ns#"
   xmlns:rdf="http://www.w3.org/1999/02/22-rdf-syntax-ns#"
   xmlns:svg="http://www.w3.org/2000/svg"
   xmlns="http://www.w3.org/2000/svg"
   xmlns:sodipodi="http://sodipodi.sourceforge.net/DTD/sodipodi-0.dtd"
   xmlns:inkscape="http://www.inkscape.org/namespaces/inkscape"
   width="1109.3567"
   height="290.85654"
   viewBox="0 0 293.5173 76.955789"
   version="1.1"
   id="svg8"
   inkscape:version="0.92.2 (5c3e80d, 2017-08-06)"
   sodipodi:docname="horizontal_white.svg"
   inkscape:export-filename="/home/anxhelo/Files/Design/pstore/horizontal_black.png"
   inkscape:export-xdpi="96"
   inkscape:export-ydpi="96">
  <defs
     id="defs2" />
  <sodipodi:namedview
     id="base"
     pagecolor="#ffffff"
     bordercolor="#666666"
     borderopacity="1.0"
     inkscape:pageopacity="0.0"
     inkscape:pageshadow="2"
     inkscape:zoom="0.505625"
     inkscape:cx="422.93944"
     inkscape:cy="332.6473"
     inkscape:document-units="mm"
     inkscape:current-layer="layer1"
     inkscape:document-rotation="0"
     showgrid="false"
     borderlayer="true"
     inkscape:showpageshadow="false"
     units="px"
     inkscape:pagecheckerboard="false"
     showguides="true"
     inkscape:window-width="1366"
     inkscape:window-height="715"
     inkscape:window-x="0"
     inkscape:window-y="0"
     inkscape:window-maximized="1"
     fit-margin-top="0"
     fit-margin-left="0"
     fit-margin-right="0"
     fit-margin-bottom="0">
    <inkscape:grid
       type="xygrid"
       id="grid10"
       originx="-69.355923"
       originy="-79.100854" />
  </sodipodi:namedview>
  <metadata
     id="metadata5">
    <rdf:RDF>
      <cc:Work
         rdf:about="">
        <dc:format>image/svg+xml</dc:format>
        <dc:type
           rdf:resource="http://purl.org/dc/dcmitype/StillImage" />
        <dc:title></dc:title>
      </cc:Work>
    </rdf:RDF>
  </metadata>
  <g
     inkscape:label="Layer 1"
     inkscape:groupmode="layer"
     id="layer1"
     transform="translate(-69.355921,-140.94336)">
    <g
       id="g359313"
       transform="matrix(1.3077509,0,0,1.3077509,-81.564461,-77.59141)"
       style="fill:#ffffff">
      <g
         id="g269617"
         transform="matrix(0.65384347,0,0,-0.65384347,165.66875,179.3669)"
         style="fill:#ffffff">
        <path
           d="m 0,0 c -3.106,0 -5.625,2.519 -5.625,5.625 0,3.106 2.519,5.625 5.625,5.625 3.106,0 5.625,-2.519 5.625,-5.625 C 5.625,2.519 3.106,0 0,0 m 0,-63.75 c -3.106,0 -5.625,2.519 -5.625,5.625 0,3.107 2.519,5.625 5.625,5.625 3.106,0 5.625,-2.518 5.625,-5.625 0,-3.106 -2.519,-5.625 -5.625,-5.625 m -6.837,33.35 h -16.924 l 8.772,-15.194 -8.734,-5.043 -8.462,14.658 -7.842,-13.584 -8.734,5.042 8.152,14.121 h -16.304 v 10.085 h 15.684 l -7.532,13.046 8.734,5.042 7.842,-13.583 8.462,14.658 8.734,-5.043 -8.152,-14.12 H -6.837 Z M -63.75,0 c -3.106,0 -5.625,2.519 -5.625,5.625 0,3.106 2.519,5.625 5.625,5.625 3.106,0 5.625,-2.519 5.625,-5.625 C -58.125,2.519 -60.644,0 -63.75,0 m 0,-63.75 c -3.106,0 -5.625,2.519 -5.625,5.625 0,3.107 2.519,5.625 5.625,5.625 3.106,0 5.625,-2.518 5.625,-5.625 0,-3.106 -2.519,-5.625 -5.625,-5.625 m -13.125,-7.5 h 90 v 90 h -90 z"
           style="fill:#ffffff;fill-opacity:1;fill-rule:nonzero;stroke:none"
           id="path269619"
           inkscape:connector-curvature="0" />
      </g>
      <g
         id="g269621"
         transform="matrix(0.65384347,0,0,-0.65384347,207.17088,195.95563)"
         style="fill:#ffffff">
        <path
           d="m 0,0 c 0,3.677 -0.826,6.62 -2.478,8.831 -1.651,2.212 -4.103,3.318 -7.352,3.318 -1.066,0 -2.052,-0.04 -2.958,-0.12 -0.906,-0.08 -1.652,-0.174 -2.237,-0.28 V -9.75 c 0.745,-0.479 1.718,-0.879 2.917,-1.199 1.198,-0.321 2.41,-0.478 3.636,-0.478 C -2.825,-11.427 0,-7.619 0,0 m 12.148,0.32 c 0,-3.25 -0.399,-6.208 -1.199,-8.872 -0.799,-2.663 -1.971,-4.955 -3.516,-6.872 -1.546,-1.919 -3.464,-3.41 -5.755,-4.476 -2.291,-1.065 -4.929,-1.597 -7.912,-1.597 -1.652,0 -3.197,0.16 -4.636,0.477 -1.438,0.321 -2.824,0.773 -4.155,1.36 V -35.484 H -26.934 V 19.9 c 1.066,0.321 2.291,0.626 3.677,0.921 1.384,0.292 2.838,0.544 4.355,0.758 1.519,0.213 3.064,0.387 4.636,0.521 1.571,0.131 3.077,0.2 4.516,0.2 3.462,0 6.553,-0.521 9.271,-1.559 2.717,-1.039 5.007,-2.506 6.873,-4.397 1.864,-1.891 3.289,-4.195 4.276,-6.912 0.984,-2.718 1.478,-5.755 1.478,-9.112"
           style="fill:#ffffff;fill-opacity:1;fill-rule:nonzero;stroke:none"
           id="path269623"
           inkscape:connector-curvature="0" />
      </g>
      <g
         id="g269625"
         transform="matrix(0.65384347,0,0,-0.65384347,227.70725,203.89819)"
         style="fill:#ffffff">
        <path
           d="m 0,0 c 2.183,0 3.728,0.212 4.635,0.641 0.906,0.423 1.359,1.25 1.359,2.477 0,0.958 -0.586,1.797 -1.758,2.518 -1.173,0.718 -2.957,1.53 -5.355,2.437 -1.866,0.691 -3.557,1.41 -5.075,2.157 -1.519,0.745 -2.811,1.639 -3.876,2.678 -1.067,1.038 -1.892,2.278 -2.478,3.716 -0.587,1.439 -0.879,3.17 -0.879,5.195 0,3.943 1.465,7.059 4.395,9.35 2.93,2.292 6.954,3.436 12.069,3.436 2.557,0 5.007,-0.226 7.352,-0.678 2.345,-0.454 4.209,-0.947 5.595,-1.479 l -2.078,-9.269 c -1.386,0.477 -2.891,0.904 -4.515,1.278 -1.626,0.372 -3.451,0.559 -5.475,0.559 -3.73,0 -5.595,-1.039 -5.595,-3.117 0,-0.48 0.08,-0.906 0.24,-1.278 0.16,-0.375 0.48,-0.734 0.959,-1.079 0.48,-0.348 1.131,-0.723 1.958,-1.125 0.825,-0.404 1.878,-0.846 3.157,-1.328 2.611,-0.969 4.768,-1.922 6.474,-2.862 1.704,-0.939 3.05,-1.956 4.036,-3.044 0.985,-1.091 1.679,-2.299 2.078,-3.628 0.4,-1.329 0.6,-2.872 0.6,-4.625 0,-4.147 -1.559,-7.284 -4.676,-9.41 -3.116,-2.125 -7.526,-3.19 -13.227,-3.19 -3.73,0 -6.833,0.32 -9.311,0.958 -2.477,0.641 -4.196,1.171 -5.155,1.6 l 1.998,9.67 C -10.523,1.759 -8.446,1.131 -6.314,0.681 -4.184,0.226 -2.078,0 0,0"
           style="fill:#ffffff;fill-opacity:1;fill-rule:nonzero;stroke:none"
           id="path269627"
           inkscape:connector-curvature="0" />
      </g>
      <g
         id="g269629"
         transform="matrix(0.65384347,0,0,-0.65384347,243.59264,175.15713)"
         style="fill:#ffffff">
        <path
           d="m 0,0 11.908,1.918 v -12.389 h 14.307 v -9.91 H 11.908 v -14.785 c 0,-2.505 0.44,-4.503 1.319,-5.993 0.878,-1.493 2.65,-2.237 5.315,-2.237 1.278,0 2.598,0.12 3.956,0.357 1.357,0.24 2.597,0.573 3.717,1.001 l 1.678,-9.272 c -1.44,-0.586 -3.038,-1.092 -4.795,-1.519 -1.759,-0.426 -3.917,-0.638 -6.475,-0.638 -3.25,0 -5.941,0.438 -8.071,1.319 -2.132,0.878 -3.837,2.103 -5.115,3.676 -1.28,1.571 -2.172,3.476 -2.678,5.713 C 0.252,-40.521 0,-38.044 0,-35.326 Z"
           style="fill:#ffffff;fill-opacity:1;fill-rule:nonzero;stroke:none"
           id="path269631"
           inkscape:connector-curvature="0" />
      </g>
      <g
         id="g269633"
         transform="matrix(0.65384347,0,0,-0.65384347,282.47142,195.69383)"
         style="fill:#ffffff">
        <path
           d="m 0,0 c 0,3.676 -0.733,6.566 -2.198,8.671 -1.466,2.105 -3.556,3.158 -6.274,3.158 -2.717,0 -4.823,-1.053 -6.314,-3.158 -1.492,-2.105 -2.237,-4.995 -2.237,-8.671 0,-3.677 0.745,-6.595 2.237,-8.752 1.491,-2.157 3.597,-3.235 6.314,-3.235 2.718,0 4.808,1.078 6.274,3.235 C -0.733,-6.595 0,-3.677 0,0 m 12.147,0 c 0,-3.305 -0.478,-6.328 -1.438,-9.072 -0.959,-2.743 -2.345,-5.087 -4.155,-7.032 -1.813,-1.946 -3.984,-3.451 -6.515,-4.515 -2.53,-1.067 -5.368,-1.599 -8.511,-1.599 -3.091,0 -5.902,0.532 -8.431,1.599 -2.532,1.064 -4.703,2.569 -6.514,4.515 -1.812,1.945 -3.225,4.289 -4.236,7.032 -1.013,2.744 -1.519,5.767 -1.519,9.072 0,3.304 0.52,6.313 1.559,9.031 1.039,2.718 2.477,5.035 4.316,6.952 1.838,1.92 4.023,3.411 6.553,4.478 2.53,1.064 5.287,1.597 8.272,1.597 3.036,0 5.821,-0.533 8.352,-1.597 2.53,-1.067 4.701,-2.558 6.514,-4.478 1.81,-1.917 3.222,-4.234 4.235,-6.952 C 11.641,6.313 12.147,3.304 12.147,0"
           style="fill:#ffffff;fill-opacity:1;fill-rule:nonzero;stroke:none"
           id="path269635"
           inkscape:connector-curvature="0" />
      </g>
      <g
         id="g269637"
         transform="matrix(0.65384347,0,0,-0.65384347,311.68174,188.90001)"
         style="fill:#ffffff">
        <path
           d="m 0,0 c -1.065,0.266 -2.317,0.544 -3.756,0.838 -1.437,0.293 -2.984,0.44 -4.635,0.44 -0.747,0 -1.638,-0.067 -2.677,-0.2 -1.039,-0.134 -1.826,-0.28 -2.358,-0.44 V -31.49 H -25.334 V 8.311 c 2.13,0.747 4.647,1.451 7.553,2.118 2.903,0.666 6.139,1 9.71,1 0.638,0 1.411,-0.04 2.318,-0.12 0.904,-0.08 1.81,-0.188 2.717,-0.321 0.905,-0.134 1.81,-0.294 2.718,-0.479 0.905,-0.187 1.677,-0.413 2.317,-0.679 z"
           style="fill:#ffffff;fill-opacity:1;fill-rule:nonzero;stroke:none"
           id="path269639"
           inkscape:connector-curvature="0" />
      </g>
      <g
         id="g269641"
         transform="matrix(0.65384347,0,0,-0.65384347,332.32378,192.97633)"
         style="fill:#ffffff">
        <path
           d="m 0,0 c -0.053,1.011 -0.228,1.997 -0.52,2.956 -0.292,0.961 -0.746,1.812 -1.358,2.558 -0.612,0.746 -1.386,1.358 -2.317,1.839 -0.933,0.48 -2.092,0.718 -3.477,0.718 -1.333,0 -2.477,-0.226 -3.437,-0.678 C -12.067,6.938 -12.867,6.34 -13.507,5.594 -14.146,4.848 -14.64,3.982 -14.985,2.996 -15.333,2.01 -15.585,1.011 -15.744,0 Z m -27.973,-4.557 c 0,3.731 0.573,6.995 1.718,9.792 1.147,2.796 2.651,5.127 4.517,6.993 1.864,1.865 4.008,3.276 6.433,4.237 2.424,0.958 4.915,1.436 7.473,1.436 5.967,0 10.682,-1.825 14.145,-5.473 3.464,-3.651 5.196,-9.02 5.196,-16.104 0,-0.694 -0.027,-1.453 -0.08,-2.277 -0.054,-0.829 -0.107,-1.56 -0.16,-2.2 h -27.013 c 0.265,-2.451 1.411,-4.395 3.436,-5.833 2.025,-1.44 4.743,-2.158 8.153,-2.158 2.183,0 4.328,0.201 6.433,0.598 2.105,0.4 3.823,0.893 5.156,1.48 l 1.597,-9.67 c -0.638,-0.321 -1.491,-0.641 -2.557,-0.959 -1.067,-0.321 -2.251,-0.601 -3.556,-0.841 -1.307,-0.24 -2.705,-0.438 -4.197,-0.598 -1.492,-0.16 -2.984,-0.24 -4.475,-0.24 -3.784,0 -7.073,0.558 -9.871,1.679 -2.797,1.119 -5.114,2.649 -6.952,4.594 -1.838,1.944 -3.197,4.249 -4.076,6.913 -0.879,2.664 -1.32,5.542 -1.32,8.631"
           style="fill:#ffffff;fill-opacity:1;fill-rule:nonzero;stroke:none"
           id="path269643"
           inkscape:connector-curvature="0" />
      </g>
    </g>
  </g>
</svg>
