<?xml version="1.0" encoding="UTF-8" standalone="no"?>
<!-- Created with Inkscape (http://www.inkscape.org/) -->

<svg
   xmlns:dc="http://purl.org/dc/elements/1.1/"
   xmlns:cc="http://creativecommons.org/ns#"
   xmlns:rdf="http://www.w3.org/1999/02/22-rdf-syntax-ns#"
   xmlns:svg="http://www.w3.org/2000/svg"
   xmlns="http://www.w3.org/2000/svg"
   xmlns:sodipodi="http://sodipodi.sourceforge.net/DTD/sodipodi-0.dtd"
   xmlns:inkscape="http://www.inkscape.org/namespaces/inkscape"
   width="638.94061"
   height="638.94061"
   viewBox="0 0 169.05304 169.05303"
   version="1.1"
   id="svg8"
   inkscape:version="0.92.2 (5c3e80d, 2017-08-06)"
   sodipodi:docname="icon_white.svg"
   inkscape:export-filename="/home/anxhelo/Files/Design/pstore/icon_black.png"
   inkscape:export-xdpi="96"
   inkscape:export-ydpi="96">
  <defs
     id="defs2" />
  <sodipodi:namedview
     id="base"
     pagecolor="#ffffff"
     bordercolor="#666666"
     borderopacity="1.0"
     inkscape:pageopacity="0.0"
     inkscape:pageshadow="2"
     inkscape:zoom="0.35753087"
     inkscape:cx="181.68426"
     inkscape:cy="365.42163"
     inkscape:document-units="mm"
     inkscape:current-layer="g359313"
     inkscape:document-rotation="0"
     showgrid="false"
     borderlayer="true"
     inkscape:showpageshadow="false"
     units="px"
     inkscape:pagecheckerboard="false"
     showguides="true"
     inkscape:window-width="1366"
     inkscape:window-height="715"
     inkscape:window-x="0"
     inkscape:window-y="0"
     inkscape:window-maximized="1"
     fit-margin-top="0"
     fit-margin-left="0"
     fit-margin-right="0"
     fit-margin-bottom="0">
    <inkscape:grid
       type="xygrid"
       id="grid10"
       originx="-189.95507"
       originy="-101.32341" />
  </sodipodi:namedview>
  <metadata
     id="metadata5">
    <rdf:RDF>
      <cc:Work
         rdf:about="">
        <dc:format>image/svg+xml</dc:format>
        <dc:type
           rdf:resource="http://purl.org/dc/dcmitype/StillImage" />
        <dc:title></dc:title>
      </cc:Work>
    </rdf:RDF>
  </metadata>
  <g
     inkscape:label="Layer 1"
     inkscape:groupmode="layer"
     id="layer1"
     transform="translate(-120.59915,-105.72441)">
    <g
       id="g359313"
       transform="matrix(1.3077509,0,0,1.3077509,-81.564461,-77.59141)">
      <g
         id="g269617"
         transform="matrix(1.436334,0,0,-1.436334,265.00695,167.10767)"
         style="fill:#ffffff">
        <path
           d="m 0,0 c -3.106,0 -5.625,2.519 -5.625,5.625 0,3.106 2.519,5.625 5.625,5.625 3.106,0 5.625,-2.519 5.625,-5.625 C 5.625,2.519 3.106,0 0,0 m 0,-63.75 c -3.106,0 -5.625,2.519 -5.625,5.625 0,3.107 2.519,5.625 5.625,5.625 3.106,0 5.625,-2.518 5.625,-5.625 0,-3.106 -2.519,-5.625 -5.625,-5.625 m -6.837,33.35 h -16.924 l 8.772,-15.194 -8.734,-5.043 -8.462,14.658 -7.842,-13.584 -8.734,5.042 8.152,14.121 h -16.304 v 10.085 h 15.684 l -7.532,13.046 8.734,5.042 7.842,-13.583 8.462,14.658 8.734,-5.043 -8.152,-14.12 H -6.837 Z M -63.75,0 c -3.106,0 -5.625,2.519 -5.625,5.625 0,3.106 2.519,5.625 5.625,5.625 3.106,0 5.625,-2.519 5.625,-5.625 C -58.125,2.519 -60.644,0 -63.75,0 m 0,-63.75 c -3.106,0 -5.625,2.519 -5.625,5.625 0,3.107 2.519,5.625 5.625,5.625 3.106,0 5.625,-2.518 5.625,-5.625 0,-3.106 -2.519,-5.625 -5.625,-5.625 m -13.125,-7.5 h 90 v 90 h -90 z"
           style="fill:#ffffff;fill-opacity:1;fill-rule:nonzero;stroke:none"
           id="path269619"
           inkscape:connector-curvature="0" />
      </g>
    </g>
  </g>
</svg>
